<svg width="106" height="78" viewBox="0 0 106 78" fill="none" xmlns="http://www.w3.org/2000/svg">
<path d="M48.8303 61.4634C48.5047 60.9801 47.8638 60.854 47.3806 61.1797L39.5433 66.317H29.2268V62.0097H39.8585C40.0791 62.0097 40.2997 61.9256 40.4678 61.7996L48.5572 55.9584C49.0299 55.6222 49.135 54.9604 48.7883 54.4981C48.4521 54.0254 47.7903 53.9203 47.328 54.267L39.5223 59.9085H29.2268V55.4962H39.8585C40.0896 55.5067 40.3207 55.4331 40.5098 55.2965L48.5992 48.9196C49.0509 48.5519 49.1245 47.89 48.7568 47.4383C48.3996 46.9866 47.7482 46.913 47.2965 47.2597L39.4908 53.395H29.2268V49.1928H39.8585C40.1211 49.1822 40.3838 49.0772 40.5729 48.8986L48.6622 41.3975C48.9774 41.0929 49.0825 40.6306 48.9249 40.2209C48.7673 39.8112 48.3786 39.538 47.9479 39.5275H37.9254C37.9149 39.5275 37.8939 39.3384 37.8624 39.2544C37.7048 38.8552 37.3161 38.582 36.8854 38.582H20.8117C20.5491 38.582 20.2864 38.6871 20.0973 38.8657L19.3935 39.5275H9.13993C8.87729 39.538 8.61465 39.6431 8.42554 39.8322L0.336181 47.3227C0.0210113 47.6274 -0.0840453 48.0897 0.0735397 48.4994C0.231125 48.9091 0.619834 49.1822 1.05057 49.1928H11.052V53.395H1.05057C0.472755 53.395 0 53.8678 0 54.4456C0 55.0234 0.472755 55.4962 1.05057 55.4962H11.052V59.9085H1.05057C0.472755 59.9085 0 60.3813 0 60.9591C0 61.5369 0.472755 62.0097 1.05057 62.0097H11.052V66.317H1.05057C0.472755 66.317 0 66.7897 0 67.3676C0 67.9454 0.472755 68.4181 1.05057 68.4181H39.8585C40.0686 68.4076 40.2682 68.3446 40.4363 68.2185L48.5257 62.9237C49.0089 62.6085 49.1455 61.9465 48.8303 61.4634ZM36.2971 41.6707C36.3076 41.6707 36.3181 41.6287 36.3391 41.6287H45.2689L39.4488 47.0916H30.5085L36.2971 41.6707ZM11.3461 47.0916H3.72951L9.54965 41.6287H17.1347L11.3986 47.0076C11.3776 47.018 11.3671 46.9866 11.3461 47.0916ZM23.9319 54.0358C23.9214 54.6136 23.4486 55.0863 22.8708 55.0758C22.293 55.0653 21.8203 54.5926 21.8308 54.0147C21.8308 53.0587 21.0534 52.2813 20.0973 52.2813C20.0868 52.2813 20.0763 52.2813 20.0763 52.2813C19.1203 52.2813 18.3429 53.0692 18.3534 54.0253C18.3534 54.9813 19.1413 55.7587 20.0973 55.7482C22.2195 55.7482 23.9319 57.4606 23.9319 59.5827C23.9109 61.2952 22.7763 62.787 21.1374 63.2702V63.9531C21.1374 64.5309 20.6646 65.0037 20.0868 65.0037C19.509 65.0037 19.0363 64.5309 19.0363 63.9531V63.2702C17.3974 62.787 16.2628 61.2952 16.2523 59.5827C16.2523 59.0049 16.725 58.5322 17.3028 58.5322C17.8806 58.5322 18.3534 59.0049 18.3534 59.5827C18.3534 60.5388 19.1308 61.3162 20.0868 61.3162C21.0428 61.3162 21.8203 60.5388 21.8203 59.5827C21.8203 58.6267 21.0428 57.8493 20.0868 57.8493C18.3744 57.8493 16.8721 56.7147 16.3993 55.0653C15.8215 53.0377 16.9982 50.9051 19.0363 50.3273V49.6444C19.0363 49.0666 19.509 48.5938 20.0868 48.5938C20.6646 48.5938 21.1374 49.0666 21.1374 49.6444V50.3273C22.7868 50.8105 23.9109 52.3023 23.9319 54.0147C23.9319 54.0254 23.9319 54.0254 23.9319 54.0358Z" fill="white"/>
<path d="M105.83 61.4634C105.505 60.9801 104.864 60.854 104.381 61.1797L96.5433 66.317H86.2268V62.0097H96.8585C97.0791 62.0097 97.2997 61.9256 97.4678 61.7996L105.557 55.9584C106.03 55.6222 106.135 54.9604 105.788 54.4981C105.452 54.0254 104.79 53.9203 104.328 54.267L96.5223 59.9085H86.2268V55.4962H96.8585C97.0896 55.5067 97.3207 55.4331 97.5098 55.2965L105.599 48.9196C106.051 48.5519 106.124 47.89 105.757 47.4383C105.4 46.9866 104.748 46.913 104.297 47.2597L96.4908 53.395H86.2268V49.1928H96.8585C97.1211 49.1822 97.3838 49.0772 97.5729 48.8986L105.662 41.3975C105.977 41.0929 106.082 40.6306 105.925 40.2209C105.767 39.8112 105.379 39.538 104.948 39.5275H94.9254C94.9149 39.5275 94.8939 39.3384 94.8624 39.2544C94.7048 38.8552 94.3161 38.582 93.8854 38.582H77.8117C77.5491 38.582 77.2864 38.6871 77.0973 38.8657L76.3935 39.5275H66.1399C65.8773 39.538 65.6146 39.6431 65.4255 39.8322L57.3362 47.3227C57.021 47.6274 56.916 48.0897 57.0735 48.4994C57.2311 48.9091 57.6198 49.1822 58.0506 49.1928H68.052V53.395H58.0506C57.4728 53.395 57 53.8678 57 54.4456C57 55.0234 57.4728 55.4962 58.0506 55.4962H68.052V59.9085H58.0506C57.4728 59.9085 57 60.3813 57 60.9591C57 61.5369 57.4728 62.0097 58.0506 62.0097H68.052V66.317H58.0506C57.4728 66.317 57 66.7897 57 67.3676C57 67.9454 57.4728 68.4181 58.0506 68.4181H96.8585C97.0686 68.4076 97.2682 68.3446 97.4363 68.2185L105.526 62.9237C106.009 62.6085 106.146 61.9465 105.83 61.4634ZM93.2971 41.6707C93.3076 41.6707 93.3181 41.6287 93.3391 41.6287H102.269L96.4488 47.0916H87.5085L93.2971 41.6707ZM68.3461 47.0916H60.7295L66.5497 41.6287H74.1347L68.3986 47.0076C68.3776 47.018 68.3671 46.9866 68.3461 47.0916ZM80.9319 54.0358C80.9214 54.6136 80.4486 55.0863 79.8708 55.0758C79.293 55.0653 78.8203 54.5926 78.8308 54.0147C78.8308 53.0587 78.0534 52.2813 77.0973 52.2813C77.0868 52.2813 77.0763 52.2813 77.0763 52.2813C76.1203 52.2813 75.3429 53.0692 75.3534 54.0253C75.3534 54.9813 76.1413 55.7587 77.0973 55.7482C79.2195 55.7482 80.9319 57.4606 80.9319 59.5827C80.9109 61.2952 79.7763 62.787 78.1374 63.2702V63.9531C78.1374 64.5309 77.6646 65.0037 77.0868 65.0037C76.509 65.0037 76.0363 64.5309 76.0363 63.9531V63.2702C74.3974 62.787 73.2628 61.2952 73.2523 59.5827C73.2523 59.0049 73.725 58.5322 74.3028 58.5322C74.8806 58.5322 75.3534 59.0049 75.3534 59.5827C75.3534 60.5388 76.1308 61.3162 77.0868 61.3162C78.0428 61.3162 78.8203 60.5388 78.8203 59.5827C78.8203 58.6267 78.0428 57.8493 77.0868 57.8493C75.3744 57.8493 73.8721 56.7147 73.3993 55.0653C72.8215 53.0377 73.9982 50.9051 76.0363 50.3273V49.6444C76.0363 49.0666 76.509 48.5938 77.0868 48.5938C77.6646 48.5938 78.1374 49.0666 78.1374 49.6444V50.3273C79.7868 50.8105 80.9109 52.3023 80.9319 54.0147C80.9319 54.0254 80.9319 54.0254 80.9319 54.0358Z" fill="white"/>
<path d="M80.8303 32.4634C80.5047 31.9801 79.8638 31.854 79.3806 32.1797L71.5433 37.317H61.2268V33.0097H71.8585C72.0791 33.0097 72.2997 32.9256 72.4678 32.7996L80.5572 26.9584C81.0299 26.6222 81.135 25.9604 80.7883 25.4981C80.4521 25.0254 79.7903 24.9203 79.328 25.267L71.5223 30.9085H61.2268V26.4962H71.8585C72.0896 26.5067 72.3207 26.4331 72.5098 26.2965L80.5992 19.9196C81.0509 19.5519 81.1245 18.89 80.7568 18.4383C80.3996 17.9866 79.7482 17.913 79.2965 18.2597L71.4908 24.395H61.2268V20.1928H71.8585C72.1211 20.1822 72.3838 20.0772 72.5729 19.8986L80.6622 12.3975C80.9774 12.0929 81.0825 11.6306 80.9249 11.2209C80.7673 10.8112 80.3786 10.538 79.9479 10.5275H69.9254C69.9149 10.5275 69.8939 10.3384 69.8624 10.2544C69.7048 9.85518 69.3161 9.58203 68.8854 9.58203H52.8117C52.5491 9.58203 52.2864 9.68709 52.0973 9.86568L51.3935 10.5275H41.1399C40.8773 10.538 40.6146 10.6431 40.4255 10.8322L32.3362 18.3227C32.021 18.6274 31.916 19.0897 32.0735 19.4994C32.2311 19.9091 32.6198 20.1822 33.0506 20.1928H43.052V24.395H33.0506C32.4728 24.395 32 24.8678 32 25.4456C32 26.0234 32.4728 26.4962 33.0506 26.4962H43.052V30.9085H33.0506C32.4728 30.9085 32 31.3813 32 31.9591C32 32.5369 32.4728 33.0097 33.0506 33.0097H43.052V37.317H33.0506C32.4728 37.317 32 37.7897 32 38.3676C32 38.9454 32.4728 39.4181 33.0506 39.4181H71.8585C72.0686 39.4076 72.2682 39.3446 72.4363 39.2185L80.5257 33.9237C81.0089 33.6085 81.1455 32.9465 80.8303 32.4634ZM68.2971 12.6707C68.3076 12.6707 68.3181 12.6287 68.3391 12.6287H77.2689L71.4488 18.0916H62.5085L68.2971 12.6707ZM43.3461 18.0916H35.7295L41.5497 12.6287H49.1347L43.3986 18.0076C43.3776 18.018 43.3671 17.9866 43.3461 18.0916ZM55.9319 25.0358C55.9214 25.6136 55.4486 26.0863 54.8708 26.0758C54.293 26.0653 53.8203 25.5926 53.8308 25.0147C53.8308 24.0587 53.0534 23.2813 52.0973 23.2813C52.0868 23.2813 52.0763 23.2813 52.0763 23.2813C51.1203 23.2813 50.3429 24.0692 50.3534 25.0253C50.3534 25.9813 51.1413 26.7587 52.0973 26.7482C54.2195 26.7482 55.9319 28.4606 55.9319 30.5827C55.9109 32.2952 54.7763 33.787 53.1374 34.2702V34.9531C53.1374 35.5309 52.6646 36.0037 52.0868 36.0037C51.509 36.0037 51.0363 35.5309 51.0363 34.9531V34.2702C49.3974 33.787 48.2628 32.2952 48.2523 30.5827C48.2523 30.0049 48.725 29.5322 49.3028 29.5322C49.8806 29.5322 50.3534 30.0049 50.3534 30.5827C50.3534 31.5388 51.1308 32.3162 52.0868 32.3162C53.0428 32.3162 53.8203 31.5388 53.8203 30.5827C53.8203 29.6267 53.0428 28.8493 52.0868 28.8493C50.3744 28.8493 48.8721 27.7147 48.3993 26.0653C47.8215 24.0377 48.9982 21.9051 51.0363 21.3273V20.6444C51.0363 20.0666 51.509 19.5938 52.0868 19.5938C52.6646 19.5938 53.1374 20.0666 53.1374 20.6444V21.3273C54.7868 21.8105 55.9109 23.3023 55.9319 25.0147C55.9319 25.0254 55.9319 25.0254 55.9319 25.0358Z" fill="white"/>
</svg>
