<svg width="42" height="42" viewBox="0 0 42 42" fill="none" xmlns="http://www.w3.org/2000/svg">
<g clip-path="url(#clip0)">
<path d="M12.421 37.4073H29.8104V39.8916H12.421V37.4073Z" fill="#067139"/>
<path d="M27.6173 31.4802C28.4782 30.2189 28.9823 28.6955 28.9823 27.0565C28.9823 26.9865 28.9813 26.9167 28.9795 26.8471C30.2809 26.5343 31.3318 25.5694 31.7455 24.2887C32.0978 23.1982 32.5407 21.828 32.9985 20.4117C34.6969 15.1589 33.1385 9.38364 29.0282 5.69858L28.0471 4.81901C26.0908 3.06508 23.9844 1.50335 21.7513 0.144409H16.4888C20.0962 1.81884 23.4243 4.01106 26.3887 6.66874L27.3698 7.54831C30.7498 10.5786 32.0314 15.3278 30.6348 19.6475C30.1768 21.0639 29.7339 22.4345 29.3815 23.5251C29.2478 23.9391 28.9259 24.2606 28.5198 24.3985C28.1788 23.4517 27.6611 22.5887 27.0067 21.8493L27.7792 19.0954C28.617 16.109 27.4458 12.9465 24.8651 11.226L19.9049 7.91912L17.6506 11.5823C16.338 13.7152 16.6147 16.4836 18.3237 18.3147L18.4902 18.4929C19.7379 19.8298 19.8681 21.7963 18.9001 23.2625L13.7312 19.0333C11.9645 17.5879 10.7132 15.6598 10.1126 13.4576L8.52462 7.63501L1.52588e-05 2.21019V5.15479L6.38059 9.21521L7.71593 14.1113C8.45324 16.8146 9.9893 19.1815 12.1581 20.956L14.4711 22.8485C13.6794 24.1005 13.2491 25.5655 13.2491 27.0565C13.2491 28.697 13.7541 30.2216 14.6165 31.4836C12.1427 31.8873 9.7307 32.7128 7.53782 33.9181C4.6641 35.4975 2.13758 37.743 0.231377 40.4117L2.25285 41.8557C5.69148 37.0415 11.0388 34.0807 16.9374 33.7188C18.1489 34.4813 19.5815 34.9232 21.1157 34.9232C22.6406 34.9232 24.0652 34.4866 25.272 33.7325L25.6089 33.7399C31.3778 34.1881 36.6137 37.1448 39.9785 41.8557L42 40.4117C38.5634 35.6005 33.395 32.4127 27.6173 31.4802ZM19.7663 12.8843L20.6704 11.4151L23.487 13.2929C25.1699 14.4149 25.9335 16.4771 25.3873 18.4245L24.8999 20.1618C23.9429 19.6345 22.8652 19.3002 21.7194 19.2129C21.4374 18.3224 20.9599 17.4984 20.3061 16.7979L20.1396 16.6196C19.1916 15.6037 19.0381 14.0677 19.7663 12.8843ZM24.5083 31.2312L24.4397 31.2852C23.5237 32.0068 22.3696 32.439 21.1156 32.439C18.1477 32.439 15.7332 30.0244 15.7332 27.0565C15.7332 26.1228 15.9659 25.2314 16.4117 24.4363L19.129 26.6596L20.1539 25.6344C21.2075 24.5808 21.8466 23.2147 21.9861 21.7455C24.5415 22.1629 26.4981 24.385 26.4981 27.0565C26.4981 28.7392 25.7215 30.2434 24.5083 31.2312Z" fill="#067139"/>
</g>
<defs>
<clipPath id="clip0">
<rect width="42" height="42" fill="white"/>
</clipPath>
</defs>
</svg>
