<svg width="26" height="32" viewBox="0 0 26 32" fill="none" xmlns="http://www.w3.org/2000/svg">
<path d="M9.60085 17.3419C10.5116 18.2432 11.7187 18.7395 12.9998 18.7395C14.2796 18.7395 15.4855 18.2441 16.3959 17.3446L17.2591 16.4814L13.9373 10.7279V7.89989H21.5126C22.3629 7.90745 22.7897 6.89533 22.198 6.29952L19.8484 3.95003L22.198 1.60041C22.79 1.0041 22.3625 -0.00758212 21.5127 4.28545e-05H12.9998C12.482 4.28545e-05 12.0623 0.419791 12.0623 0.937539V10.7279L8.74048 16.4815C9.12123 16.8624 9.60085 17.3419 9.60085 17.3419Z" fill="#067139"/>
<path d="M25.4069 30.5932L18.2298 18.1621L17.7176 18.6742C16.4536 19.9252 14.7782 20.6142 12.9999 20.6142C11.2217 20.6142 9.54624 19.9253 8.28218 18.6744L7.77006 18.1622L0.592962 30.5932C0.22965 31.205 0.693586 32.0082 1.40483 31.9995H24.5949C25.3064 32.0082 25.7701 31.2048 25.4069 30.5932Z" fill="#067139"/>
</svg>
