<svg width="16" height="22" viewBox="0 0 16 22" fill="none" xmlns="http://www.w3.org/2000/svg">
<path d="M7.99999 0C4.12207 0 0.967194 3.15488 0.967194 7.03279C0.967194 8.09036 1.19627 9.10674 1.64787 10.0544C1.65696 10.0747 1.66651 10.0946 1.67669 10.1145L6.99033 20.4028C7.18541 20.7804 7.57492 21.0177 7.99989 21.0177C8.42496 21.0177 8.81448 20.7805 9.00946 20.4028L14.3216 10.1173C14.3308 10.0996 14.3394 10.0817 14.3476 10.0636C14.8022 9.1132 15.0326 8.09372 15.0326 7.03279C15.0328 3.15488 11.8779 0 7.99999 0ZM7.99999 10.7139C5.97022 10.7139 4.31887 9.06257 4.31887 7.03279C4.31887 5.00311 5.97022 3.35177 7.99999 3.35177C10.0298 3.35177 11.6811 5.00311 11.6811 7.03279C11.6811 9.06257 10.0298 10.7139 7.99999 10.7139Z" fill="white"/>
</svg>
