<svg width="106" height="49" viewBox="0 0 106 49" fill="none" xmlns="http://www.w3.org/2000/svg">
<path d="M48.8303 32.4634C48.5047 31.9801 47.8638 31.854 47.3806 32.1797L39.5433 37.317H29.2268V33.0097H39.8585C40.0791 33.0097 40.2997 32.9256 40.4678 32.7996L48.5572 26.9584C49.0299 26.6222 49.135 25.9604 48.7883 25.4981C48.4521 25.0254 47.7903 24.9203 47.328 25.267L39.5223 30.9085H29.2268V26.4962H39.8585C40.0896 26.5067 40.3207 26.4331 40.5098 26.2965L48.5992 19.9196C49.0509 19.5519 49.1245 18.89 48.7568 18.4383C48.3996 17.9866 47.7482 17.913 47.2965 18.2597L39.4908 24.395H29.2268V20.1928H39.8585C40.1211 20.1822 40.3838 20.0772 40.5729 19.8986L48.6622 12.3975C48.9774 12.0929 49.0825 11.6306 48.9249 11.2209C48.7673 10.8112 48.3786 10.538 47.9479 10.5275H37.9254C37.9149 10.5275 37.8939 10.3384 37.8624 10.2544C37.7048 9.85518 37.3161 9.58203 36.8854 9.58203H20.8117C20.5491 9.58203 20.2864 9.68709 20.0973 9.86568L19.3935 10.5275H9.13993C8.87729 10.538 8.61465 10.6431 8.42554 10.8322L0.336181 18.3227C0.0210113 18.6274 -0.0840453 19.0897 0.0735397 19.4994C0.231125 19.9091 0.619834 20.1822 1.05057 20.1928H11.052V24.395H1.05057C0.472755 24.395 0 24.8678 0 25.4456C0 26.0234 0.472755 26.4962 1.05057 26.4962H11.052V30.9085H1.05057C0.472755 30.9085 0 31.3813 0 31.9591C0 32.5369 0.472755 33.0097 1.05057 33.0097H11.052V37.317H1.05057C0.472755 37.317 0 37.7897 0 38.3676C0 38.9454 0.472755 39.4181 1.05057 39.4181H39.8585C40.0686 39.4076 40.2682 39.3446 40.4363 39.2185L48.5257 33.9237C49.0089 33.6085 49.1455 32.9465 48.8303 32.4634ZM36.2971 12.6707C36.3076 12.6707 36.3181 12.6287 36.3391 12.6287H45.2689L39.4488 18.0916H30.5085L36.2971 12.6707ZM11.3461 18.0916H3.72951L9.54965 12.6287H17.1347L11.3986 18.0076C11.3776 18.018 11.3671 17.9866 11.3461 18.0916ZM23.9319 25.0358C23.9214 25.6136 23.4486 26.0863 22.8708 26.0758C22.293 26.0653 21.8203 25.5926 21.8308 25.0147C21.8308 24.0587 21.0534 23.2813 20.0973 23.2813C20.0868 23.2813 20.0763 23.2813 20.0763 23.2813C19.1203 23.2813 18.3429 24.0692 18.3534 25.0253C18.3534 25.9813 19.1413 26.7587 20.0973 26.7482C22.2195 26.7482 23.9319 28.4606 23.9319 30.5827C23.9109 32.2952 22.7763 33.787 21.1374 34.2702V34.9531C21.1374 35.5309 20.6646 36.0037 20.0868 36.0037C19.509 36.0037 19.0363 35.5309 19.0363 34.9531V34.2702C17.3974 33.787 16.2628 32.2952 16.2523 30.5827C16.2523 30.0049 16.725 29.5322 17.3028 29.5322C17.8806 29.5322 18.3534 30.0049 18.3534 30.5827C18.3534 31.5388 19.1308 32.3162 20.0868 32.3162C21.0428 32.3162 21.8203 31.5388 21.8203 30.5827C21.8203 29.6267 21.0428 28.8493 20.0868 28.8493C18.3744 28.8493 16.8721 27.7147 16.3993 26.0653C15.8215 24.0377 16.9982 21.9051 19.0363 21.3273V20.6444C19.0363 20.0666 19.509 19.5938 20.0868 19.5938C20.6646 19.5938 21.1374 20.0666 21.1374 20.6444V21.3273C22.7868 21.8105 23.9109 23.3023 23.9319 25.0147C23.9319 25.0254 23.9319 25.0254 23.9319 25.0358Z" fill="white"/>
<path d="M105.83 32.4634C105.505 31.9801 104.864 31.854 104.381 32.1797L96.5433 37.317H86.2268V33.0097H96.8585C97.0791 33.0097 97.2997 32.9256 97.4678 32.7996L105.557 26.9584C106.03 26.6222 106.135 25.9604 105.788 25.4981C105.452 25.0254 104.79 24.9203 104.328 25.267L96.5223 30.9085H86.2268V26.4962H96.8585C97.0896 26.5067 97.3207 26.4331 97.5098 26.2965L105.599 19.9196C106.051 19.5519 106.124 18.89 105.757 18.4383C105.4 17.9866 104.748 17.913 104.297 18.2597L96.4908 24.395H86.2268V20.1928H96.8585C97.1211 20.1822 97.3838 20.0772 97.5729 19.8986L105.662 12.3975C105.977 12.0929 106.082 11.6306 105.925 11.2209C105.767 10.8112 105.379 10.538 104.948 10.5275H94.9254C94.9149 10.5275 94.8939 10.3384 94.8624 10.2544C94.7048 9.85518 94.3161 9.58203 93.8854 9.58203H77.8117C77.5491 9.58203 77.2864 9.68709 77.0973 9.86568L76.3935 10.5275H66.1399C65.8773 10.538 65.6146 10.6431 65.4255 10.8322L57.3362 18.3227C57.021 18.6274 56.916 19.0897 57.0735 19.4994C57.2311 19.9091 57.6198 20.1822 58.0506 20.1928H68.052V24.395H58.0506C57.4728 24.395 57 24.8678 57 25.4456C57 26.0234 57.4728 26.4962 58.0506 26.4962H68.052V30.9085H58.0506C57.4728 30.9085 57 31.3813 57 31.9591C57 32.5369 57.4728 33.0097 58.0506 33.0097H68.052V37.317H58.0506C57.4728 37.317 57 37.7897 57 38.3676C57 38.9454 57.4728 39.4181 58.0506 39.4181H96.8585C97.0686 39.4076 97.2682 39.3446 97.4363 39.2185L105.526 33.9237C106.009 33.6085 106.146 32.9465 105.83 32.4634ZM93.2971 12.6707C93.3076 12.6707 93.3181 12.6287 93.3391 12.6287H102.269L96.4488 18.0916H87.5085L93.2971 12.6707ZM68.3461 18.0916H60.7295L66.5497 12.6287H74.1347L68.3986 18.0076C68.3776 18.018 68.3671 17.9866 68.3461 18.0916ZM80.9319 25.0358C80.9214 25.6136 80.4486 26.0863 79.8708 26.0758C79.293 26.0653 78.8203 25.5926 78.8308 25.0147C78.8308 24.0587 78.0534 23.2813 77.0973 23.2813C77.0868 23.2813 77.0763 23.2813 77.0763 23.2813C76.1203 23.2813 75.3429 24.0692 75.3534 25.0253C75.3534 25.9813 76.1413 26.7587 77.0973 26.7482C79.2195 26.7482 80.9319 28.4606 80.9319 30.5827C80.9109 32.2952 79.7763 33.787 78.1374 34.2702V34.9531C78.1374 35.5309 77.6646 36.0037 77.0868 36.0037C76.509 36.0037 76.0363 35.5309 76.0363 34.9531V34.2702C74.3974 33.787 73.2628 32.2952 73.2523 30.5827C73.2523 30.0049 73.725 29.5322 74.3028 29.5322C74.8806 29.5322 75.3534 30.0049 75.3534 30.5827C75.3534 31.5388 76.1308 32.3162 77.0868 32.3162C78.0428 32.3162 78.8203 31.5388 78.8203 30.5827C78.8203 29.6267 78.0428 28.8493 77.0868 28.8493C75.3744 28.8493 73.8721 27.7147 73.3993 26.0653C72.8215 24.0377 73.9982 21.9051 76.0363 21.3273V20.6444C76.0363 20.0666 76.509 19.5938 77.0868 19.5938C77.6646 19.5938 78.1374 20.0666 78.1374 20.6444V21.3273C79.7868 21.8105 80.9109 23.3023 80.9319 25.0147C80.9319 25.0254 80.9319 25.0254 80.9319 25.0358Z" fill="white"/>
</svg>
