<svg width="27" height="29" viewBox="0 0 27 29" fill="none" xmlns="http://www.w3.org/2000/svg">
<path d="M2.62498 0H18.0248L26.1874 8.1309V27.1875C26.1874 28.1889 25.3755 29 24.375 29H2.62498C1.62446 29 0.8125 28.1889 0.8125 27.1875V1.81248C0.8125 0.811112 1.62455 0 2.62498 0Z" fill="#E2574C"/>
<path d="M26.1612 8.15765H19.8437C18.8432 8.15765 18.0312 7.3457 18.0312 6.34517V0.0195312L26.1612 8.15765Z" fill="#B53629"/>
<path d="M19.3888 13.7384C19.6924 13.7384 19.841 13.4738 19.841 13.2173C19.841 12.9518 19.686 12.6953 19.3888 12.6953H17.6596C17.3216 12.6953 17.1331 12.9753 17.1331 13.2844V17.5338C17.1331 17.9126 17.3488 18.1228 17.6406 18.1228C17.9306 18.1228 18.1473 17.9126 18.1473 17.5338V16.3674H19.1931C19.5175 16.3674 19.6797 16.1019 19.6797 15.8382C19.6797 15.58 19.5175 15.3234 19.1931 15.3234H18.1473V13.7384H19.3888ZM13.5444 12.6953H12.2792C11.9357 12.6953 11.6919 12.931 11.6919 13.2807V17.5374C11.6919 17.9715 12.0426 18.1074 12.2937 18.1074H13.6213C15.1927 18.1074 16.2304 17.0734 16.2304 15.4775C16.2296 13.7901 15.2527 12.6953 13.5444 12.6953ZM13.6051 17.0581H12.8339V13.7448H13.529C14.5812 13.7448 15.0388 14.4508 15.0388 15.425C15.0388 16.3367 14.5892 17.0581 13.6051 17.0581ZM8.97054 12.6953H7.71721C7.36286 12.6953 7.16528 12.9291 7.16528 13.2844V17.5338C7.16528 17.9126 7.39183 18.1228 7.6963 18.1228C8.00077 18.1228 8.22732 17.9126 8.22732 17.5338V16.2931H9.01302C9.9827 16.2931 10.7829 15.6061 10.7829 14.5014C10.783 13.4203 10.0109 12.6953 8.97054 12.6953ZM8.94973 15.2963H8.22742V13.6931H8.94973C9.3956 13.6931 9.67926 14.0411 9.67926 14.4951C9.67832 14.9483 9.3956 15.2963 8.94973 15.2963Z" fill="white"/>
</svg>
