<svg width="24" height="24" viewBox="0 0 24 24" fill="none" xmlns="http://www.w3.org/2000/svg">
<path d="M23.3468 17.6136L19.9975 14.2643C18.8013 13.0681 16.7678 13.5467 16.2894 15.1016C15.9305 16.1782 14.7343 16.7763 13.6578 16.537C11.2655 15.9389 8.0358 12.8289 7.43772 10.317C7.07887 9.24036 7.79657 8.04419 8.87312 7.68538C10.4281 7.20691 10.9066 5.17343 9.71044 3.97726L6.36117 0.627989C5.40423 -0.209329 3.96883 -0.209329 3.13152 0.627989L0.858795 2.90071C-1.41392 5.29305 1.09803 11.6327 6.72002 17.2547C12.342 22.8767 18.6817 25.5083 21.074 23.116L23.3468 20.8432C24.1841 19.8863 24.1841 18.4509 23.3468 17.6136Z" fill="white"/>
</svg>
