<svg width="42" height="36" viewBox="0 0 42 36" fill="none" xmlns="http://www.w3.org/2000/svg">
<path d="M41.9385 10.9065L41.9103 10.7489C41.9052 10.7245 41.9025 10.7001 41.8975 10.6764L38.952 3.56275V0.0630493H2.99923V3.56283L0.102539 10.6758C0.0961406 10.7041 0.0922852 10.7323 0.0871172 10.7598L0.0602109 10.9065C0.0205078 11.161 0 11.4218 0 11.6878C0 13.5899 1.06132 15.2433 2.625 16.0886V35.937H39.375V16.0886C40.9375 15.2433 42 13.5898 42 11.6878C42 11.4218 41.9782 11.161 41.9385 10.9065ZM39.9608 10.5631H33.5316L32.7587 5.36752H37.8446L39.9608 10.5631ZM4.7501 1.81261H37.2024V3.56283H4.7501V1.81261ZM32.0229 12.3126L32.1178 12.9477L31.6 13.6366C30.9797 14.4633 30.0311 14.9375 28.9994 14.9375C27.9676 14.9375 27.019 14.4633 26.3987 13.6366L25.8706 12.9329L25.8398 12.3126H32.0229ZM25.754 10.5631L25.4989 5.36752H30.9886L31.7628 10.5631H25.754ZM24.0877 12.3125L24.1185 12.947L23.5994 13.6366C22.9791 14.4633 22.0306 14.9375 21 14.9375C19.9669 14.9375 19.0197 14.4633 18.3981 13.6366L17.8674 12.9284L17.8982 12.3125H24.0877ZM17.9867 10.5631L18.2494 5.36752H23.748L24.0019 10.5631H17.9867ZM10.2462 10.5631L11.0101 5.36752H16.4985L16.2344 10.5631H10.2462ZM16.1447 12.3126L16.1127 12.9541L15.6 13.6366C14.9783 14.4633 14.0311 14.9375 12.9993 14.9375C11.9675 14.9375 11.0203 14.4633 10.3987 13.6366L9.89371 12.9644L9.98985 12.3126H16.1447ZM4.15414 5.36752H9.24139L8.47752 10.5631H2.03807L4.15414 5.36752ZM1.80977 12.3126H8.22101L8.08385 12.9926L7.60061 13.6367C6.97897 14.4634 6.03176 14.9376 4.99866 14.9376C3.42095 14.9376 2.10205 13.8071 1.80977 12.3126ZM34.125 34.1887H27.1241V28.062H27.9996C28.4828 28.062 28.875 27.671 28.875 27.1878C28.875 26.7047 28.4828 26.3137 27.9996 26.3137H27.1241V20.187H34.125V34.1887ZM37.6243 34.1887H37.6241H35.8746V18.4387H25.3746V34.1887H4.37456V16.6488C4.57833 16.6744 4.78857 16.6879 4.99874 16.6879C6.63428 16.6879 8.08771 15.9022 8.99907 14.6877C9.91167 15.9022 11.3639 16.6879 12.9994 16.6879C14.6349 16.6879 16.0871 15.9022 16.9997 14.6877C17.911 15.9022 19.3645 16.6879 21.0001 16.6879C22.6356 16.6879 24.0865 15.9022 24.9991 14.6877C25.9117 15.9022 27.3639 16.6879 28.9994 16.6879C30.635 16.6879 32.0872 15.9022 32.9998 14.6877C33.9124 15.9022 35.3633 16.6879 36.9988 16.6879C37.2116 16.6879 37.4192 16.6745 37.6243 16.6488V34.1887ZM36.9986 14.9376C35.9682 14.9376 35.0196 14.4634 34.3992 13.6367L33.8904 12.9612L33.7917 12.3127H40.1876C39.8954 13.8071 38.5777 14.9376 36.9986 14.9376Z" fill="#067139"/>
</svg>
