<svg width="155" height="88" viewBox="0 0 155 88" fill="none" xmlns="http://www.w3.org/2000/svg">
<path d="M109.885 56.5617C114.36 56.5608 118 52.9194 118 48.4447C118 45.192 116.271 42.2173 113.592 40.5544C113.757 39.8544 113.842 39.133 113.842 38.4074C113.842 35.9306 112.878 33.6021 111.126 31.8503C109.375 30.0988 107.046 29.1344 104.569 29.1344C103.844 29.1344 103.122 29.2194 102.422 29.3851C100.759 26.7056 97.7846 24.9769 94.532 24.9769C91.2796 24.9769 88.305 26.7056 86.6419 29.3851C85.9417 29.2193 85.2205 29.1344 84.4949 29.1344C82.0183 29.1344 79.6897 30.0989 77.9373 31.8505C75.6364 34.1519 74.7559 37.4796 75.4771 40.5517C72.7948 42.2144 71.0644 45.1913 71.0644 48.4509C71.0644 50.6194 71.909 52.6579 73.4424 54.1912C74.9756 55.7239 77.0135 56.568 79.1815 56.568H79.1831L91.6593 56.5654L82.0915 66.0065V61.5519L79.1841 61.5526H79.1813C75.6823 61.5526 72.3926 60.1901 69.9181 57.7161C67.9491 55.7473 66.6869 53.2617 66.2517 50.566V56.3312L57.1941 47.2735L66.134 47.2716C66.4189 43.9232 67.9002 40.762 70.2514 38.3879C70.2686 34.6572 71.7424 30.9973 74.4125 28.3265C77.1056 25.6345 80.6835 24.1519 84.4887 24.1502C87.138 21.5328 90.7626 19.9927 94.5318 19.9927C94.6137 19.9927 94.695 19.9975 94.7766 19.9989C94.7766 19.9786 94.778 19.9585 94.778 19.9384C94.778 16.3501 93.3808 12.9766 90.8436 10.4392C88.3064 7.90178 84.9328 6.50444 81.3442 6.50444C80.0265 6.50444 78.7193 6.69762 77.4696 7.07214C75.159 2.80191 70.6252 0 65.6414 0C60.6575 0 56.124 2.80191 53.8129 7.07197C52.5632 6.69763 51.2561 6.50444 49.9384 6.50444C46.3505 6.50444 42.9769 7.90178 40.4385 10.4393C36.9132 13.9655 35.6898 19.1548 37.078 23.81C32.8043 26.1202 30 30.6567 30 35.6515C30 38.7573 31.2097 41.6769 33.4059 43.8726C35.6016 46.0678 38.5205 47.2768 41.6255 47.2768H41.6279L49.9339 47.2751L66.2522 63.5936V88H82.0919V73.2502L98.93 56.5639L109.885 56.5617Z" fill="white"/>
<path d="M150.02 68.7083C152.766 68.7078 155 66.4733 155 63.7274C155 61.7314 153.939 59.9061 152.295 58.8857C152.397 58.4561 152.449 58.0134 152.449 57.5682C152.449 56.0483 151.857 54.6195 150.782 53.5445C149.707 52.4697 148.278 51.8779 146.758 51.8779C146.313 51.8779 145.871 51.9301 145.441 52.0318C144.42 50.3875 142.595 49.3267 140.599 49.3267C138.603 49.3267 136.778 50.3875 135.758 52.0318C135.328 51.93 134.885 51.8779 134.44 51.8779C132.92 51.8779 131.491 52.4698 130.416 53.5446C129.004 54.9569 128.464 56.9988 128.906 58.884C127.26 59.9043 126.199 61.731 126.199 63.7312C126.199 65.0619 126.717 66.3128 127.658 67.2537C128.599 68.1942 129.849 68.7122 131.18 68.7122H131.181L138.836 68.7106L132.965 74.504V71.7705L131.181 71.7709H131.179C129.032 71.7709 127.014 70.9348 125.495 69.4167C124.287 68.2086 123.512 66.6833 123.245 65.0291V68.5669L117.687 63.0088L123.173 63.0076C123.348 60.9529 124.257 59.0131 125.7 57.5562C125.71 55.2669 126.615 53.0211 128.253 51.3822C129.906 49.7302 132.101 48.8205 134.436 48.8194C136.062 47.2133 138.286 46.2682 140.599 46.2682C140.649 46.2682 140.699 46.2712 140.749 46.272C140.749 46.2596 140.75 46.2472 140.75 46.2349C140.75 44.033 139.893 41.9629 138.336 40.4059C136.779 38.8488 134.709 37.9914 132.507 37.9914C131.698 37.9914 130.896 38.1099 130.129 38.3397C128.711 35.7194 125.929 34 122.871 34C119.813 34 117.031 35.7194 115.612 38.3396C114.846 38.1099 114.044 37.9914 113.235 37.9914C111.033 37.9914 108.963 38.8488 107.405 40.406C105.242 42.5698 104.491 45.7541 105.343 48.6107C102.721 50.0283 101 52.812 101 55.8771C101 57.7829 101.742 59.5745 103.09 60.9218C104.437 62.2689 106.229 63.0108 108.134 63.0108H108.135L113.232 63.0097L123.246 73.0233V88H132.965V78.949L143.298 68.7097L150.02 68.7083Z" fill="white"/>
<path d="M49.0202 68.7083C51.7661 68.7078 54 66.4733 54 63.7274C54 61.7314 52.9393 59.9061 51.2948 58.8857C51.3965 58.4561 51.4486 58.0134 51.4486 57.5682C51.4486 56.0483 50.8568 54.6195 49.7821 53.5445C48.7073 52.4697 47.2784 51.8779 45.7585 51.8779C45.3132 51.8779 44.8706 51.9301 44.4409 52.0318C43.4204 50.3875 41.5951 49.3267 39.5992 49.3267C37.6034 49.3267 35.7781 50.3875 34.7575 52.0318C34.3279 51.93 33.8853 51.8779 33.44 51.8779C31.9203 51.8779 30.4914 52.4698 29.4161 53.5446C28.0042 54.9569 27.4639 56.9988 27.9064 58.884C26.2605 59.9043 25.1986 61.731 25.1986 63.7312C25.1986 65.0619 25.7169 66.3128 26.6579 67.2537C27.5986 68.1942 28.8492 68.7122 30.1796 68.7122H30.1805L37.8364 68.7106L31.9653 74.504V71.7705L30.1811 71.7709H30.1795C28.0323 71.7709 26.0137 70.9348 24.4952 69.4167C23.287 68.2086 22.5124 66.6833 22.2454 65.0291V68.5669L16.6873 63.0088L22.1731 63.0076C22.348 60.9529 23.2569 59.0131 24.6997 57.5562C24.7103 55.2669 25.6147 53.0211 27.2531 51.3822C28.9057 49.7302 31.1013 48.8205 33.4362 48.8194C35.0619 47.2133 37.2862 46.2682 39.5991 46.2682C39.6493 46.2682 39.6992 46.2712 39.7493 46.272C39.7493 46.2596 39.7501 46.2472 39.7501 46.2349C39.7501 44.033 38.8928 41.9629 37.3358 40.4059C35.7789 38.8488 33.7088 37.9914 31.5067 37.9914C30.6981 37.9914 29.896 38.1099 29.1291 38.3397C27.7112 35.7194 24.9291 34 21.8708 34C18.8126 34 16.0306 35.7194 14.6125 38.3396C13.8456 38.1099 13.0435 37.9914 12.2349 37.9914C10.0332 37.9914 7.9631 38.8488 6.40543 40.406C4.24216 42.5698 3.49144 45.7541 4.34331 48.6107C1.72083 50.0283 0 52.812 0 55.8771C0 57.7829 0.742289 59.5745 2.08997 60.9218C3.43733 62.2689 5.22851 63.0108 7.1338 63.0108H7.13528L12.2322 63.0097L22.2457 73.0233V88H31.9655V78.949L42.2979 68.7097L49.0202 68.7083Z" fill="white"/>
</svg>
